# xmcd
#
# Track frame offsets:
#	150
#	16111
#	33952
#	49274
#	65957
#	87487
#	112997
#	131789
#	147115
#	164113
#
# Disc length: 2623 seconds
#
# Revision: 1
# Processed by: cddbd v1.5.2PL0 Copyright (c) Steve Scherf et al.
# Submitted via: audiograbber 1.83.01
#
DISCID=8f0a3d0a
DTITLE=Hard Times - Hard Times
DYEAR=2009
DGENRE=Blues
TTITLE0=How Many More Years
TTITLE1=Nine Below Zero
TTITLE2=Evil (is going on)
TTITLE3=Working Song
TTITLE4=Crawlin' King Snake
TTITLE5=Hard Times Killing Floor
TTITLE6=Ramblin' On My Mind
TTITLE7=32-20 Blues
TTITLE8=St. James Infilmary
TTITLE9=Szaro-Niebiesko-Zielone
EXTD=www.myspace.com/hardtimes\n
EXTT0=
EXTT1=
EXTT2=
EXTT3=
EXTT4=
EXTT5=
EXTT6=
EXTT7=
EXTT8=
EXTT9=
PLAYORDER=
